<svg xmlns="http://www.w3.org/2000/svg" width="2400" height="1200" viewBox="0 0 2400 1200" role="img" aria-label="Imóvel">
    <defs>
      <linearGradient id="gareiafachada-ceu" x1="0" y1="0" x2="0" y2="1">
        <stop offset="0%" stop-color="#2a2317"/>
        <stop offset="100%" stop-color="#7a6a4a"/>
      </linearGradient>
      <radialGradient id="gareiafachada-sol" cx="76%" cy="30%" r="46%">
        <stop offset="0%" stop-color="#F0E4C4" stop-opacity="0.85"/>
        <stop offset="40%" stop-color="#F0E4C4" stop-opacity="0.25"/>
        <stop offset="100%" stop-color="#F0E4C4" stop-opacity="0"/>
      </radialGradient>
      <linearGradient id="gareiafachada-base" x1="0" y1="0" x2="0" y2="1">
        <stop offset="0%" stop-color="#312a1d"/>
        <stop offset="100%" stop-color="#13100a"/>
      </linearGradient>
      <filter id="gareiafachada-nuvem" x="-10%" y="-10%" width="120%" height="120%">
        <feTurbulence type="fractalNoise" baseFrequency="0.006 0.014" numOctaves="4" seed="7" result="n"/>
        <feColorMatrix in="n" type="matrix" values="0 0 0 0 1  0 0 0 0 1  0 0 0 0 1  0 0 0 0.32 -0.08"/>
      </filter>
      <filter id="gareiafachada-grao">
        <feTurbulence type="fractalNoise" baseFrequency="0.9" numOctaves="2" seed="3" stitchTiles="stitch"/>
        <feColorMatrix type="matrix" values="0 0 0 0 0  0 0 0 0 0  0 0 0 0 0  0 0 0 0.5 0"/>
      </filter>
      <linearGradient id="gareiafachada-scrim" x1="0" y1="0" x2="0" y2="1">
        <stop offset="55%" stop-color="#0c0e10" stop-opacity="0"/>
        <stop offset="100%" stop-color="#0c0e10" stop-opacity="0.72"/>
      </linearGradient>
    </defs>
      <rect width="2400" height="1200" fill="url(#gareiafachada-ceu)"/>
      <rect width="2400" height="696" fill="url(#gareiafachada-sol)"/>
      <g filter="url(#gareiafachada-nuvem)" opacity="0.32"><rect width="2400" height="592"/></g>
      <circle cx="1872" cy="223" r="60" fill="#F0E4C4" opacity="0.5"/>
      <rect x="0" y="696" width="2400" height="504" fill="url(#gareiafachada-base)"/>
      <line x1="0" y1="696" x2="2400" y2="696" stroke="#B8924A" stroke-width="2" opacity="0.5"/>
      <g>
        <rect x="192" y="312" width="720" height="384" fill="#1a1610"/>
        <rect x="222.9" y="323.9" width="43.2" height="19.6" fill="#F0E4C4" opacity="0.14" rx="1"/><rect x="325.7" y="323.9" width="43.2" height="19.6" fill="#F0E4C4" opacity="0.5" rx="1"/><rect x="428.6" y="323.9" width="43.2" height="19.6" fill="#F0E4C4" opacity="0.5" rx="1"/><rect x="531.4" y="323.9" width="43.2" height="19.6" fill="#F0E4C4" opacity="0.5" rx="1"/><rect x="634.3" y="323.9" width="43.2" height="19.6" fill="#F0E4C4" opacity="0.5" rx="1"/><rect x="737.1" y="323.9" width="43.2" height="19.6" fill="#F0E4C4" opacity="0.14" rx="1"/><rect x="840.0" y="323.9" width="43.2" height="19.6" fill="#F0E4C4" opacity="0.5" rx="1"/><rect x="222.9" y="366.6" width="43.2" height="19.6" fill="#F0E4C4" opacity="0.5" rx="1"/><rect x="325.7" y="366.6" width="43.2" height="19.6" fill="#F0E4C4" opacity="0.14" rx="1"/><rect x="428.6" y="366.6" width="43.2" height="19.6" fill="#F0E4C4" opacity="0.5" rx="1"/><rect x="531.4" y="366.6" width="43.2" height="19.6" fill="#F0E4C4" opacity="0.5" rx="1"/><rect x="634.3" y="366.6" width="43.2" height="19.6" fill="#F0E4C4" opacity="0.5" rx="1"/><rect x="737.1" y="366.6" width="43.2" height="19.6" fill="#F0E4C4" opacity="0.5" rx="1"/><rect x="840.0" y="366.6" width="43.2" height="19.6" fill="#F0E4C4" opacity="0.14" rx="1"/><rect x="222.9" y="409.3" width="43.2" height="19.6" fill="#F0E4C4" opacity="0.5" rx="1"/><rect x="325.7" y="409.3" width="43.2" height="19.6" fill="#F0E4C4" opacity="0.5" rx="1"/><rect x="428.6" y="409.3" width="43.2" height="19.6" fill="#F0E4C4" opacity="0.14" rx="1"/><rect x="531.4" y="409.3" width="43.2" height="19.6" fill="#F0E4C4" opacity="0.5" rx="1"/><rect x="634.3" y="409.3" width="43.2" height="19.6" fill="#F0E4C4" opacity="0.5" rx="1"/><rect x="737.1" y="409.3" width="43.2" height="19.6" fill="#F0E4C4" opacity="0.5" rx="1"/><rect x="840.0" y="409.3" width="43.2" height="19.6" fill="#F0E4C4" opacity="0.5" rx="1"/><rect x="222.9" y="451.9" width="43.2" height="19.6" fill="#F0E4C4" opacity="0.5" rx="1"/><rect x="325.7" y="451.9" width="43.2" height="19.6" fill="#F0E4C4" opacity="0.5" rx="1"/><rect x="428.6" y="451.9" width="43.2" height="19.6" fill="#F0E4C4" opacity="0.5" rx="1"/><rect x="531.4" y="451.9" width="43.2" height="19.6" fill="#F0E4C4" opacity="0.14" rx="1"/><rect x="634.3" y="451.9" width="43.2" height="19.6" fill="#F0E4C4" opacity="0.5" rx="1"/><rect x="737.1" y="451.9" width="43.2" height="19.6" fill="#F0E4C4" opacity="0.5" rx="1"/><rect x="840.0" y="451.9" width="43.2" height="19.6" fill="#F0E4C4" opacity="0.5" rx="1"/><rect x="222.9" y="494.6" width="43.2" height="19.6" fill="#F0E4C4" opacity="0.5" rx="1"/><rect x="325.7" y="494.6" width="43.2" height="19.6" fill="#F0E4C4" opacity="0.5" rx="1"/><rect x="428.6" y="494.6" width="43.2" height="19.6" fill="#F0E4C4" opacity="0.5" rx="1"/><rect x="531.4" y="494.6" width="43.2" height="19.6" fill="#F0E4C4" opacity="0.5" rx="1"/><rect x="634.3" y="494.6" width="43.2" height="19.6" fill="#F0E4C4" opacity="0.14" rx="1"/><rect x="737.1" y="494.6" width="43.2" height="19.6" fill="#F0E4C4" opacity="0.5" rx="1"/><rect x="840.0" y="494.6" width="43.2" height="19.6" fill="#F0E4C4" opacity="0.5" rx="1"/><rect x="222.9" y="537.3" width="43.2" height="19.6" fill="#F0E4C4" opacity="0.14" rx="1"/><rect x="325.7" y="537.3" width="43.2" height="19.6" fill="#F0E4C4" opacity="0.5" rx="1"/><rect x="428.6" y="537.3" width="43.2" height="19.6" fill="#F0E4C4" opacity="0.5" rx="1"/><rect x="531.4" y="537.3" width="43.2" height="19.6" fill="#F0E4C4" opacity="0.5" rx="1"/><rect x="634.3" y="537.3" width="43.2" height="19.6" fill="#F0E4C4" opacity="0.5" rx="1"/><rect x="737.1" y="537.3" width="43.2" height="19.6" fill="#F0E4C4" opacity="0.14" rx="1"/><rect x="840.0" y="537.3" width="43.2" height="19.6" fill="#F0E4C4" opacity="0.5" rx="1"/><rect x="222.9" y="579.9" width="43.2" height="19.6" fill="#F0E4C4" opacity="0.5" rx="1"/><rect x="325.7" y="579.9" width="43.2" height="19.6" fill="#F0E4C4" opacity="0.14" rx="1"/><rect x="428.6" y="579.9" width="43.2" height="19.6" fill="#F0E4C4" opacity="0.5" rx="1"/><rect x="531.4" y="579.9" width="43.2" height="19.6" fill="#F0E4C4" opacity="0.5" rx="1"/><rect x="634.3" y="579.9" width="43.2" height="19.6" fill="#F0E4C4" opacity="0.5" rx="1"/><rect x="737.1" y="579.9" width="43.2" height="19.6" fill="#F0E4C4" opacity="0.5" rx="1"/><rect x="840.0" y="579.9" width="43.2" height="19.6" fill="#F0E4C4" opacity="0.14" rx="1"/><rect x="222.9" y="622.6" width="43.2" height="19.6" fill="#F0E4C4" opacity="0.5" rx="1"/><rect x="325.7" y="622.6" width="43.2" height="19.6" fill="#F0E4C4" opacity="0.5" rx="1"/><rect x="428.6" y="622.6" width="43.2" height="19.6" fill="#F0E4C4" opacity="0.14" rx="1"/><rect x="531.4" y="622.6" width="43.2" height="19.6" fill="#F0E4C4" opacity="0.5" rx="1"/><rect x="634.3" y="622.6" width="43.2" height="19.6" fill="#F0E4C4" opacity="0.5" rx="1"/><rect x="737.1" y="622.6" width="43.2" height="19.6" fill="#F0E4C4" opacity="0.5" rx="1"/><rect x="840.0" y="622.6" width="43.2" height="19.6" fill="#F0E4C4" opacity="0.5" rx="1"/><rect x="222.9" y="665.3" width="43.2" height="19.6" fill="#F0E4C4" opacity="0.5" rx="1"/><rect x="325.7" y="665.3" width="43.2" height="19.6" fill="#F0E4C4" opacity="0.5" rx="1"/><rect x="428.6" y="665.3" width="43.2" height="19.6" fill="#F0E4C4" opacity="0.5" rx="1"/><rect x="531.4" y="665.3" width="43.2" height="19.6" fill="#F0E4C4" opacity="0.14" rx="1"/><rect x="634.3" y="665.3" width="43.2" height="19.6" fill="#F0E4C4" opacity="0.5" rx="1"/><rect x="737.1" y="665.3" width="43.2" height="19.6" fill="#F0E4C4" opacity="0.5" rx="1"/><rect x="840.0" y="665.3" width="43.2" height="19.6" fill="#F0E4C4" opacity="0.5" rx="1"/>
        <rect x="960" y="456" width="528" height="240" fill="#312a1d"/>
        <rect x="991.7" y="467.2" width="44.4" height="18.4" fill="#F0E4C4" opacity="0.14" rx="1"/><rect x="1097.3" y="467.2" width="44.4" height="18.4" fill="#F0E4C4" opacity="0.38" rx="1"/><rect x="1202.9" y="467.2" width="44.4" height="18.4" fill="#F0E4C4" opacity="0.38" rx="1"/><rect x="1308.5" y="467.2" width="44.4" height="18.4" fill="#F0E4C4" opacity="0.38" rx="1"/><rect x="1414.1" y="467.2" width="44.4" height="18.4" fill="#F0E4C4" opacity="0.38" rx="1"/><rect x="991.7" y="507.2" width="44.4" height="18.4" fill="#F0E4C4" opacity="0.38" rx="1"/><rect x="1097.3" y="507.2" width="44.4" height="18.4" fill="#F0E4C4" opacity="0.14" rx="1"/><rect x="1202.9" y="507.2" width="44.4" height="18.4" fill="#F0E4C4" opacity="0.38" rx="1"/><rect x="1308.5" y="507.2" width="44.4" height="18.4" fill="#F0E4C4" opacity="0.38" rx="1"/><rect x="1414.1" y="507.2" width="44.4" height="18.4" fill="#F0E4C4" opacity="0.38" rx="1"/><rect x="991.7" y="547.2" width="44.4" height="18.4" fill="#F0E4C4" opacity="0.38" rx="1"/><rect x="1097.3" y="547.2" width="44.4" height="18.4" fill="#F0E4C4" opacity="0.38" rx="1"/><rect x="1202.9" y="547.2" width="44.4" height="18.4" fill="#F0E4C4" opacity="0.14" rx="1"/><rect x="1308.5" y="547.2" width="44.4" height="18.4" fill="#F0E4C4" opacity="0.38" rx="1"/><rect x="1414.1" y="547.2" width="44.4" height="18.4" fill="#F0E4C4" opacity="0.38" rx="1"/><rect x="991.7" y="587.2" width="44.4" height="18.4" fill="#F0E4C4" opacity="0.38" rx="1"/><rect x="1097.3" y="587.2" width="44.4" height="18.4" fill="#F0E4C4" opacity="0.38" rx="1"/><rect x="1202.9" y="587.2" width="44.4" height="18.4" fill="#F0E4C4" opacity="0.38" rx="1"/><rect x="1308.5" y="587.2" width="44.4" height="18.4" fill="#F0E4C4" opacity="0.14" rx="1"/><rect x="1414.1" y="587.2" width="44.4" height="18.4" fill="#F0E4C4" opacity="0.38" rx="1"/><rect x="991.7" y="627.2" width="44.4" height="18.4" fill="#F0E4C4" opacity="0.38" rx="1"/><rect x="1097.3" y="627.2" width="44.4" height="18.4" fill="#F0E4C4" opacity="0.38" rx="1"/><rect x="1202.9" y="627.2" width="44.4" height="18.4" fill="#F0E4C4" opacity="0.38" rx="1"/><rect x="1308.5" y="627.2" width="44.4" height="18.4" fill="#F0E4C4" opacity="0.38" rx="1"/><rect x="1414.1" y="627.2" width="44.4" height="18.4" fill="#F0E4C4" opacity="0.14" rx="1"/><rect x="991.7" y="667.2" width="44.4" height="18.4" fill="#F0E4C4" opacity="0.14" rx="1"/><rect x="1097.3" y="667.2" width="44.4" height="18.4" fill="#F0E4C4" opacity="0.38" rx="1"/><rect x="1202.9" y="667.2" width="44.4" height="18.4" fill="#F0E4C4" opacity="0.38" rx="1"/><rect x="1308.5" y="667.2" width="44.4" height="18.4" fill="#F0E4C4" opacity="0.38" rx="1"/><rect x="1414.1" y="667.2" width="44.4" height="18.4" fill="#F0E4C4" opacity="0.38" rx="1"/>
        <rect x="1512" y="192" width="480" height="504" fill="#1a1610"/>
        <rect x="1540.8" y="203.8" width="40.3" height="19.3" fill="#F0E4C4" opacity="0.14" rx="1"/><rect x="1636.8" y="203.8" width="40.3" height="19.3" fill="#F0E4C4" opacity="0.5" rx="1"/><rect x="1732.8" y="203.8" width="40.3" height="19.3" fill="#F0E4C4" opacity="0.5" rx="1"/><rect x="1828.8" y="203.8" width="40.3" height="19.3" fill="#F0E4C4" opacity="0.5" rx="1"/><rect x="1924.8" y="203.8" width="40.3" height="19.3" fill="#F0E4C4" opacity="0.5" rx="1"/><rect x="1540.8" y="245.8" width="40.3" height="19.3" fill="#F0E4C4" opacity="0.5" rx="1"/><rect x="1636.8" y="245.8" width="40.3" height="19.3" fill="#F0E4C4" opacity="0.14" rx="1"/><rect x="1732.8" y="245.8" width="40.3" height="19.3" fill="#F0E4C4" opacity="0.5" rx="1"/><rect x="1828.8" y="245.8" width="40.3" height="19.3" fill="#F0E4C4" opacity="0.5" rx="1"/><rect x="1924.8" y="245.8" width="40.3" height="19.3" fill="#F0E4C4" opacity="0.5" rx="1"/><rect x="1540.8" y="287.8" width="40.3" height="19.3" fill="#F0E4C4" opacity="0.5" rx="1"/><rect x="1636.8" y="287.8" width="40.3" height="19.3" fill="#F0E4C4" opacity="0.5" rx="1"/><rect x="1732.8" y="287.8" width="40.3" height="19.3" fill="#F0E4C4" opacity="0.14" rx="1"/><rect x="1828.8" y="287.8" width="40.3" height="19.3" fill="#F0E4C4" opacity="0.5" rx="1"/><rect x="1924.8" y="287.8" width="40.3" height="19.3" fill="#F0E4C4" opacity="0.5" rx="1"/><rect x="1540.8" y="329.8" width="40.3" height="19.3" fill="#F0E4C4" opacity="0.5" rx="1"/><rect x="1636.8" y="329.8" width="40.3" height="19.3" fill="#F0E4C4" opacity="0.5" rx="1"/><rect x="1732.8" y="329.8" width="40.3" height="19.3" fill="#F0E4C4" opacity="0.5" rx="1"/><rect x="1828.8" y="329.8" width="40.3" height="19.3" fill="#F0E4C4" opacity="0.14" rx="1"/><rect x="1924.8" y="329.8" width="40.3" height="19.3" fill="#F0E4C4" opacity="0.5" rx="1"/><rect x="1540.8" y="371.8" width="40.3" height="19.3" fill="#F0E4C4" opacity="0.5" rx="1"/><rect x="1636.8" y="371.8" width="40.3" height="19.3" fill="#F0E4C4" opacity="0.5" rx="1"/><rect x="1732.8" y="371.8" width="40.3" height="19.3" fill="#F0E4C4" opacity="0.5" rx="1"/><rect x="1828.8" y="371.8" width="40.3" height="19.3" fill="#F0E4C4" opacity="0.5" rx="1"/><rect x="1924.8" y="371.8" width="40.3" height="19.3" fill="#F0E4C4" opacity="0.14" rx="1"/><rect x="1540.8" y="413.8" width="40.3" height="19.3" fill="#F0E4C4" opacity="0.14" rx="1"/><rect x="1636.8" y="413.8" width="40.3" height="19.3" fill="#F0E4C4" opacity="0.5" rx="1"/><rect x="1732.8" y="413.8" width="40.3" height="19.3" fill="#F0E4C4" opacity="0.5" rx="1"/><rect x="1828.8" y="413.8" width="40.3" height="19.3" fill="#F0E4C4" opacity="0.5" rx="1"/><rect x="1924.8" y="413.8" width="40.3" height="19.3" fill="#F0E4C4" opacity="0.5" rx="1"/><rect x="1540.8" y="455.8" width="40.3" height="19.3" fill="#F0E4C4" opacity="0.5" rx="1"/><rect x="1636.8" y="455.8" width="40.3" height="19.3" fill="#F0E4C4" opacity="0.14" rx="1"/><rect x="1732.8" y="455.8" width="40.3" height="19.3" fill="#F0E4C4" opacity="0.5" rx="1"/><rect x="1828.8" y="455.8" width="40.3" height="19.3" fill="#F0E4C4" opacity="0.5" rx="1"/><rect x="1924.8" y="455.8" width="40.3" height="19.3" fill="#F0E4C4" opacity="0.5" rx="1"/><rect x="1540.8" y="497.8" width="40.3" height="19.3" fill="#F0E4C4" opacity="0.5" rx="1"/><rect x="1636.8" y="497.8" width="40.3" height="19.3" fill="#F0E4C4" opacity="0.5" rx="1"/><rect x="1732.8" y="497.8" width="40.3" height="19.3" fill="#F0E4C4" opacity="0.14" rx="1"/><rect x="1828.8" y="497.8" width="40.3" height="19.3" fill="#F0E4C4" opacity="0.5" rx="1"/><rect x="1924.8" y="497.8" width="40.3" height="19.3" fill="#F0E4C4" opacity="0.5" rx="1"/><rect x="1540.8" y="539.8" width="40.3" height="19.3" fill="#F0E4C4" opacity="0.5" rx="1"/><rect x="1636.8" y="539.8" width="40.3" height="19.3" fill="#F0E4C4" opacity="0.5" rx="1"/><rect x="1732.8" y="539.8" width="40.3" height="19.3" fill="#F0E4C4" opacity="0.5" rx="1"/><rect x="1828.8" y="539.8" width="40.3" height="19.3" fill="#F0E4C4" opacity="0.14" rx="1"/><rect x="1924.8" y="539.8" width="40.3" height="19.3" fill="#F0E4C4" opacity="0.5" rx="1"/><rect x="1540.8" y="581.8" width="40.3" height="19.3" fill="#F0E4C4" opacity="0.5" rx="1"/><rect x="1636.8" y="581.8" width="40.3" height="19.3" fill="#F0E4C4" opacity="0.5" rx="1"/><rect x="1732.8" y="581.8" width="40.3" height="19.3" fill="#F0E4C4" opacity="0.5" rx="1"/><rect x="1828.8" y="581.8" width="40.3" height="19.3" fill="#F0E4C4" opacity="0.5" rx="1"/><rect x="1924.8" y="581.8" width="40.3" height="19.3" fill="#F0E4C4" opacity="0.14" rx="1"/><rect x="1540.8" y="623.8" width="40.3" height="19.3" fill="#F0E4C4" opacity="0.14" rx="1"/><rect x="1636.8" y="623.8" width="40.3" height="19.3" fill="#F0E4C4" opacity="0.5" rx="1"/><rect x="1732.8" y="623.8" width="40.3" height="19.3" fill="#F0E4C4" opacity="0.5" rx="1"/><rect x="1828.8" y="623.8" width="40.3" height="19.3" fill="#F0E4C4" opacity="0.5" rx="1"/><rect x="1924.8" y="623.8" width="40.3" height="19.3" fill="#F0E4C4" opacity="0.5" rx="1"/><rect x="1540.8" y="665.8" width="40.3" height="19.3" fill="#F0E4C4" opacity="0.5" rx="1"/><rect x="1636.8" y="665.8" width="40.3" height="19.3" fill="#F0E4C4" opacity="0.14" rx="1"/><rect x="1732.8" y="665.8" width="40.3" height="19.3" fill="#F0E4C4" opacity="0.5" rx="1"/><rect x="1828.8" y="665.8" width="40.3" height="19.3" fill="#F0E4C4" opacity="0.5" rx="1"/><rect x="1924.8" y="665.8" width="40.3" height="19.3" fill="#F0E4C4" opacity="0.5" rx="1"/>
      </g>
    <rect width="2400" height="1200" fill="url(#gareiafachada-scrim)"/>
    <g filter="url(#gareiafachada-grao)" opacity="0.06"><rect width="2400" height="1200"/></g>
    <rect x="14" y="14" width="2372" height="1172" fill="none" stroke="#B8924A" stroke-width="1.5" opacity="0.35"/>
    
    </svg>