<svg xmlns="http://www.w3.org/2000/svg" width="2400" height="1500" viewBox="0 0 2400 1500" role="img" aria-label="Imóvel">
    <defs>
      <linearGradient id="glitoralvista-ceu" x1="0" y1="0" x2="0" y2="1">
        <stop offset="0%" stop-color="#16252b"/>
        <stop offset="100%" stop-color="#436069"/>
      </linearGradient>
      <radialGradient id="glitoralvista-sol" cx="76%" cy="30%" r="46%">
        <stop offset="0%" stop-color="#D8B871" stop-opacity="0.85"/>
        <stop offset="40%" stop-color="#D8B871" stop-opacity="0.25"/>
        <stop offset="100%" stop-color="#D8B871" stop-opacity="0"/>
      </radialGradient>
      <linearGradient id="glitoralvista-base" x1="0" y1="0" x2="0" y2="1">
        <stop offset="0%" stop-color="#1c2a30"/>
        <stop offset="100%" stop-color="#0c1114"/>
      </linearGradient>
      <filter id="glitoralvista-nuvem" x="-10%" y="-10%" width="120%" height="120%">
        <feTurbulence type="fractalNoise" baseFrequency="0.006 0.014" numOctaves="4" seed="7" result="n"/>
        <feColorMatrix in="n" type="matrix" values="0 0 0 0 1  0 0 0 0 1  0 0 0 0 1  0 0 0 0.32 -0.08"/>
      </filter>
      <filter id="glitoralvista-grao">
        <feTurbulence type="fractalNoise" baseFrequency="0.9" numOctaves="2" seed="3" stitchTiles="stitch"/>
        <feColorMatrix type="matrix" values="0 0 0 0 0  0 0 0 0 0  0 0 0 0 0  0 0 0 0.5 0"/>
      </filter>
      <linearGradient id="glitoralvista-scrim" x1="0" y1="0" x2="0" y2="1">
        <stop offset="55%" stop-color="#0c0e10" stop-opacity="0"/>
        <stop offset="100%" stop-color="#0c0e10" stop-opacity="0.72"/>
      </linearGradient>
    </defs>
      <rect width="2400" height="1500" fill="url(#glitoralvista-ceu)"/>
      <rect width="2400" height="990" fill="url(#glitoralvista-sol)"/>
      <g filter="url(#glitoralvista-nuvem)" opacity="0.3"><rect width="2400" height="911"/></g>
      <circle cx="1728" cy="475" r="210" fill="#D8B871" opacity="0.16"/>
      <circle cx="1728" cy="475" r="83" fill="#D8B871" opacity="0.6"/>
      <circle cx="1728" cy="475" r="45" fill="#FBF3DC" opacity="0.9"/>
      <!-- costa baixa de residências distantes -->
      <g fill="#0f1518">
        <rect x="72" y="878" width="432" height="113"/>
        <rect x="552" y="915" width="288" height="75"/>
        <rect x="888" y="840" width="216" height="150"/>
      </g>
      <rect x="88.2" y="893.3" width="22.7" height="25.9" fill="#D8B871" opacity="0.14" rx="1"/><rect x="142.2" y="893.3" width="22.7" height="25.9" fill="#D8B871" opacity="0.5" rx="1"/><rect x="196.2" y="893.3" width="22.7" height="25.9" fill="#D8B871" opacity="0.5" rx="1"/><rect x="250.2" y="893.3" width="22.7" height="25.9" fill="#D8B871" opacity="0.5" rx="1"/><rect x="304.2" y="893.3" width="22.7" height="25.9" fill="#D8B871" opacity="0.5" rx="1"/><rect x="358.2" y="893.3" width="22.7" height="25.9" fill="#D8B871" opacity="0.14" rx="1"/><rect x="412.2" y="893.3" width="22.7" height="25.9" fill="#D8B871" opacity="0.5" rx="1"/><rect x="466.2" y="893.3" width="22.7" height="25.9" fill="#D8B871" opacity="0.5" rx="1"/><rect x="88.2" y="949.5" width="22.7" height="25.9" fill="#D8B871" opacity="0.5" rx="1"/><rect x="142.2" y="949.5" width="22.7" height="25.9" fill="#D8B871" opacity="0.14" rx="1"/><rect x="196.2" y="949.5" width="22.7" height="25.9" fill="#D8B871" opacity="0.5" rx="1"/><rect x="250.2" y="949.5" width="22.7" height="25.9" fill="#D8B871" opacity="0.5" rx="1"/><rect x="304.2" y="949.5" width="22.7" height="25.9" fill="#D8B871" opacity="0.5" rx="1"/><rect x="358.2" y="949.5" width="22.7" height="25.9" fill="#D8B871" opacity="0.5" rx="1"/><rect x="412.2" y="949.5" width="22.7" height="25.9" fill="#D8B871" opacity="0.14" rx="1"/><rect x="466.2" y="949.5" width="22.7" height="25.9" fill="#D8B871" opacity="0.5" rx="1"/>
      <rect x="909.6" y="854.0" width="30.2" height="23.0" fill="#D8B871" opacity="0.14" rx="1"/><rect x="981.6" y="854.0" width="30.2" height="23.0" fill="#D8B871" opacity="0.5" rx="1"/><rect x="1053.6" y="854.0" width="30.2" height="23.0" fill="#D8B871" opacity="0.5" rx="1"/><rect x="909.6" y="904.0" width="30.2" height="23.0" fill="#D8B871" opacity="0.5" rx="1"/><rect x="981.6" y="904.0" width="30.2" height="23.0" fill="#D8B871" opacity="0.14" rx="1"/><rect x="1053.6" y="904.0" width="30.2" height="23.0" fill="#D8B871" opacity="0.5" rx="1"/><rect x="909.6" y="954.0" width="30.2" height="23.0" fill="#D8B871" opacity="0.5" rx="1"/><rect x="981.6" y="954.0" width="30.2" height="23.0" fill="#D8B871" opacity="0.5" rx="1"/><rect x="1053.6" y="954.0" width="30.2" height="23.0" fill="#D8B871" opacity="0.14" rx="1"/>
      <!-- mar -->
      <rect x="0" y="990" width="2400" height="510" fill="url(#glitoralvista-base)"/>
      <line x1="0" y1="990" x2="2400" y2="990" stroke="#B8924A" stroke-width="2" opacity="0.5"/>
      <polygon points="1728,990 1536,1500 1920,1500" fill="#D8B871" opacity="0.12"/>
      <g opacity="0.14" stroke="#D8B871" stroke-width="2">
        <line x1="672" y1="1050" x2="2304" y2="1050"/>
        <line x1="1104" y1="1140" x2="2208" y2="1140"/>
        <line x1="1344" y1="1250" x2="2400" y2="1250"/>
      </g>
    <rect width="2400" height="1500" fill="url(#glitoralvista-scrim)"/>
    <g filter="url(#glitoralvista-grao)" opacity="0.06"><rect width="2400" height="1500"/></g>
    <rect x="14" y="14" width="2372" height="1472" fill="none" stroke="#B8924A" stroke-width="1.5" opacity="0.35"/>
    
    </svg>