<svg xmlns="http://www.w3.org/2000/svg" width="2000" height="1300" viewBox="0 0 2000 1300" role="img" aria-label="Imóvel">
    <defs>
      <linearGradient id="gserrafachada-ceu" x1="0" y1="0" x2="0" y2="1">
        <stop offset="0%" stop-color="#171c24"/>
        <stop offset="100%" stop-color="#3f4a5c"/>
      </linearGradient>
      <radialGradient id="gserrafachada-sol" cx="76%" cy="30%" r="46%">
        <stop offset="0%" stop-color="#CFE0EA" stop-opacity="0.85"/>
        <stop offset="40%" stop-color="#CFE0EA" stop-opacity="0.25"/>
        <stop offset="100%" stop-color="#CFE0EA" stop-opacity="0"/>
      </radialGradient>
      <linearGradient id="gserrafachada-base" x1="0" y1="0" x2="0" y2="1">
        <stop offset="0%" stop-color="#1f2630"/>
        <stop offset="100%" stop-color="#0a0d12"/>
      </linearGradient>
      <filter id="gserrafachada-nuvem" x="-10%" y="-10%" width="120%" height="120%">
        <feTurbulence type="fractalNoise" baseFrequency="0.006 0.014" numOctaves="4" seed="7" result="n"/>
        <feColorMatrix in="n" type="matrix" values="0 0 0 0 1  0 0 0 0 1  0 0 0 0 1  0 0 0 0.32 -0.08"/>
      </filter>
      <filter id="gserrafachada-grao">
        <feTurbulence type="fractalNoise" baseFrequency="0.9" numOctaves="2" seed="3" stitchTiles="stitch"/>
        <feColorMatrix type="matrix" values="0 0 0 0 0  0 0 0 0 0  0 0 0 0 0  0 0 0 0.5 0"/>
      </filter>
      <linearGradient id="gserrafachada-scrim" x1="0" y1="0" x2="0" y2="1">
        <stop offset="55%" stop-color="#0c0e10" stop-opacity="0"/>
        <stop offset="100%" stop-color="#0c0e10" stop-opacity="0.72"/>
      </linearGradient>
    </defs>
      <rect width="2000" height="1300" fill="url(#gserrafachada-ceu)"/>
      <rect width="2000" height="754" fill="url(#gserrafachada-sol)"/>
      <g filter="url(#gserrafachada-nuvem)" opacity="0.32"><rect width="2000" height="641"/></g>
      <circle cx="1560" cy="241" r="65" fill="#CFE0EA" opacity="0.5"/>
      <rect x="0" y="754" width="2000" height="546" fill="url(#gserrafachada-base)"/>
      <line x1="0" y1="754" x2="2000" y2="754" stroke="#B8924A" stroke-width="2" opacity="0.5"/>
      <g>
        <rect x="160" y="338" width="600" height="416" fill="#0f131a"/>
        <rect x="185.7" y="350.9" width="36.0" height="21.3" fill="#CFE0EA" opacity="0.14" rx="1"/><rect x="271.4" y="350.9" width="36.0" height="21.3" fill="#CFE0EA" opacity="0.5" rx="1"/><rect x="357.1" y="350.9" width="36.0" height="21.3" fill="#CFE0EA" opacity="0.5" rx="1"/><rect x="442.9" y="350.9" width="36.0" height="21.3" fill="#CFE0EA" opacity="0.5" rx="1"/><rect x="528.6" y="350.9" width="36.0" height="21.3" fill="#CFE0EA" opacity="0.5" rx="1"/><rect x="614.3" y="350.9" width="36.0" height="21.3" fill="#CFE0EA" opacity="0.14" rx="1"/><rect x="700.0" y="350.9" width="36.0" height="21.3" fill="#CFE0EA" opacity="0.5" rx="1"/><rect x="185.7" y="397.2" width="36.0" height="21.3" fill="#CFE0EA" opacity="0.5" rx="1"/><rect x="271.4" y="397.2" width="36.0" height="21.3" fill="#CFE0EA" opacity="0.14" rx="1"/><rect x="357.1" y="397.2" width="36.0" height="21.3" fill="#CFE0EA" opacity="0.5" rx="1"/><rect x="442.9" y="397.2" width="36.0" height="21.3" fill="#CFE0EA" opacity="0.5" rx="1"/><rect x="528.6" y="397.2" width="36.0" height="21.3" fill="#CFE0EA" opacity="0.5" rx="1"/><rect x="614.3" y="397.2" width="36.0" height="21.3" fill="#CFE0EA" opacity="0.5" rx="1"/><rect x="700.0" y="397.2" width="36.0" height="21.3" fill="#CFE0EA" opacity="0.14" rx="1"/><rect x="185.7" y="443.4" width="36.0" height="21.3" fill="#CFE0EA" opacity="0.5" rx="1"/><rect x="271.4" y="443.4" width="36.0" height="21.3" fill="#CFE0EA" opacity="0.5" rx="1"/><rect x="357.1" y="443.4" width="36.0" height="21.3" fill="#CFE0EA" opacity="0.14" rx="1"/><rect x="442.9" y="443.4" width="36.0" height="21.3" fill="#CFE0EA" opacity="0.5" rx="1"/><rect x="528.6" y="443.4" width="36.0" height="21.3" fill="#CFE0EA" opacity="0.5" rx="1"/><rect x="614.3" y="443.4" width="36.0" height="21.3" fill="#CFE0EA" opacity="0.5" rx="1"/><rect x="700.0" y="443.4" width="36.0" height="21.3" fill="#CFE0EA" opacity="0.5" rx="1"/><rect x="185.7" y="489.6" width="36.0" height="21.3" fill="#CFE0EA" opacity="0.5" rx="1"/><rect x="271.4" y="489.6" width="36.0" height="21.3" fill="#CFE0EA" opacity="0.5" rx="1"/><rect x="357.1" y="489.6" width="36.0" height="21.3" fill="#CFE0EA" opacity="0.5" rx="1"/><rect x="442.9" y="489.6" width="36.0" height="21.3" fill="#CFE0EA" opacity="0.14" rx="1"/><rect x="528.6" y="489.6" width="36.0" height="21.3" fill="#CFE0EA" opacity="0.5" rx="1"/><rect x="614.3" y="489.6" width="36.0" height="21.3" fill="#CFE0EA" opacity="0.5" rx="1"/><rect x="700.0" y="489.6" width="36.0" height="21.3" fill="#CFE0EA" opacity="0.5" rx="1"/><rect x="185.7" y="535.8" width="36.0" height="21.3" fill="#CFE0EA" opacity="0.5" rx="1"/><rect x="271.4" y="535.8" width="36.0" height="21.3" fill="#CFE0EA" opacity="0.5" rx="1"/><rect x="357.1" y="535.8" width="36.0" height="21.3" fill="#CFE0EA" opacity="0.5" rx="1"/><rect x="442.9" y="535.8" width="36.0" height="21.3" fill="#CFE0EA" opacity="0.5" rx="1"/><rect x="528.6" y="535.8" width="36.0" height="21.3" fill="#CFE0EA" opacity="0.14" rx="1"/><rect x="614.3" y="535.8" width="36.0" height="21.3" fill="#CFE0EA" opacity="0.5" rx="1"/><rect x="700.0" y="535.8" width="36.0" height="21.3" fill="#CFE0EA" opacity="0.5" rx="1"/><rect x="185.7" y="582.1" width="36.0" height="21.3" fill="#CFE0EA" opacity="0.14" rx="1"/><rect x="271.4" y="582.1" width="36.0" height="21.3" fill="#CFE0EA" opacity="0.5" rx="1"/><rect x="357.1" y="582.1" width="36.0" height="21.3" fill="#CFE0EA" opacity="0.5" rx="1"/><rect x="442.9" y="582.1" width="36.0" height="21.3" fill="#CFE0EA" opacity="0.5" rx="1"/><rect x="528.6" y="582.1" width="36.0" height="21.3" fill="#CFE0EA" opacity="0.5" rx="1"/><rect x="614.3" y="582.1" width="36.0" height="21.3" fill="#CFE0EA" opacity="0.14" rx="1"/><rect x="700.0" y="582.1" width="36.0" height="21.3" fill="#CFE0EA" opacity="0.5" rx="1"/><rect x="185.7" y="628.3" width="36.0" height="21.3" fill="#CFE0EA" opacity="0.5" rx="1"/><rect x="271.4" y="628.3" width="36.0" height="21.3" fill="#CFE0EA" opacity="0.14" rx="1"/><rect x="357.1" y="628.3" width="36.0" height="21.3" fill="#CFE0EA" opacity="0.5" rx="1"/><rect x="442.9" y="628.3" width="36.0" height="21.3" fill="#CFE0EA" opacity="0.5" rx="1"/><rect x="528.6" y="628.3" width="36.0" height="21.3" fill="#CFE0EA" opacity="0.5" rx="1"/><rect x="614.3" y="628.3" width="36.0" height="21.3" fill="#CFE0EA" opacity="0.5" rx="1"/><rect x="700.0" y="628.3" width="36.0" height="21.3" fill="#CFE0EA" opacity="0.14" rx="1"/><rect x="185.7" y="674.5" width="36.0" height="21.3" fill="#CFE0EA" opacity="0.5" rx="1"/><rect x="271.4" y="674.5" width="36.0" height="21.3" fill="#CFE0EA" opacity="0.5" rx="1"/><rect x="357.1" y="674.5" width="36.0" height="21.3" fill="#CFE0EA" opacity="0.14" rx="1"/><rect x="442.9" y="674.5" width="36.0" height="21.3" fill="#CFE0EA" opacity="0.5" rx="1"/><rect x="528.6" y="674.5" width="36.0" height="21.3" fill="#CFE0EA" opacity="0.5" rx="1"/><rect x="614.3" y="674.5" width="36.0" height="21.3" fill="#CFE0EA" opacity="0.5" rx="1"/><rect x="700.0" y="674.5" width="36.0" height="21.3" fill="#CFE0EA" opacity="0.5" rx="1"/><rect x="185.7" y="720.7" width="36.0" height="21.3" fill="#CFE0EA" opacity="0.5" rx="1"/><rect x="271.4" y="720.7" width="36.0" height="21.3" fill="#CFE0EA" opacity="0.5" rx="1"/><rect x="357.1" y="720.7" width="36.0" height="21.3" fill="#CFE0EA" opacity="0.5" rx="1"/><rect x="442.9" y="720.7" width="36.0" height="21.3" fill="#CFE0EA" opacity="0.14" rx="1"/><rect x="528.6" y="720.7" width="36.0" height="21.3" fill="#CFE0EA" opacity="0.5" rx="1"/><rect x="614.3" y="720.7" width="36.0" height="21.3" fill="#CFE0EA" opacity="0.5" rx="1"/><rect x="700.0" y="720.7" width="36.0" height="21.3" fill="#CFE0EA" opacity="0.5" rx="1"/>
        <rect x="800" y="494" width="440" height="260" fill="#1f2630"/>
        <rect x="826.4" y="506.1" width="37.0" height="19.9" fill="#CFE0EA" opacity="0.14" rx="1"/><rect x="914.4" y="506.1" width="37.0" height="19.9" fill="#CFE0EA" opacity="0.38" rx="1"/><rect x="1002.4" y="506.1" width="37.0" height="19.9" fill="#CFE0EA" opacity="0.38" rx="1"/><rect x="1090.4" y="506.1" width="37.0" height="19.9" fill="#CFE0EA" opacity="0.38" rx="1"/><rect x="1178.4" y="506.1" width="37.0" height="19.9" fill="#CFE0EA" opacity="0.38" rx="1"/><rect x="826.4" y="549.5" width="37.0" height="19.9" fill="#CFE0EA" opacity="0.38" rx="1"/><rect x="914.4" y="549.5" width="37.0" height="19.9" fill="#CFE0EA" opacity="0.14" rx="1"/><rect x="1002.4" y="549.5" width="37.0" height="19.9" fill="#CFE0EA" opacity="0.38" rx="1"/><rect x="1090.4" y="549.5" width="37.0" height="19.9" fill="#CFE0EA" opacity="0.38" rx="1"/><rect x="1178.4" y="549.5" width="37.0" height="19.9" fill="#CFE0EA" opacity="0.38" rx="1"/><rect x="826.4" y="592.8" width="37.0" height="19.9" fill="#CFE0EA" opacity="0.38" rx="1"/><rect x="914.4" y="592.8" width="37.0" height="19.9" fill="#CFE0EA" opacity="0.38" rx="1"/><rect x="1002.4" y="592.8" width="37.0" height="19.9" fill="#CFE0EA" opacity="0.14" rx="1"/><rect x="1090.4" y="592.8" width="37.0" height="19.9" fill="#CFE0EA" opacity="0.38" rx="1"/><rect x="1178.4" y="592.8" width="37.0" height="19.9" fill="#CFE0EA" opacity="0.38" rx="1"/><rect x="826.4" y="636.1" width="37.0" height="19.9" fill="#CFE0EA" opacity="0.38" rx="1"/><rect x="914.4" y="636.1" width="37.0" height="19.9" fill="#CFE0EA" opacity="0.38" rx="1"/><rect x="1002.4" y="636.1" width="37.0" height="19.9" fill="#CFE0EA" opacity="0.38" rx="1"/><rect x="1090.4" y="636.1" width="37.0" height="19.9" fill="#CFE0EA" opacity="0.14" rx="1"/><rect x="1178.4" y="636.1" width="37.0" height="19.9" fill="#CFE0EA" opacity="0.38" rx="1"/><rect x="826.4" y="679.5" width="37.0" height="19.9" fill="#CFE0EA" opacity="0.38" rx="1"/><rect x="914.4" y="679.5" width="37.0" height="19.9" fill="#CFE0EA" opacity="0.38" rx="1"/><rect x="1002.4" y="679.5" width="37.0" height="19.9" fill="#CFE0EA" opacity="0.38" rx="1"/><rect x="1090.4" y="679.5" width="37.0" height="19.9" fill="#CFE0EA" opacity="0.38" rx="1"/><rect x="1178.4" y="679.5" width="37.0" height="19.9" fill="#CFE0EA" opacity="0.14" rx="1"/><rect x="826.4" y="722.8" width="37.0" height="19.9" fill="#CFE0EA" opacity="0.14" rx="1"/><rect x="914.4" y="722.8" width="37.0" height="19.9" fill="#CFE0EA" opacity="0.38" rx="1"/><rect x="1002.4" y="722.8" width="37.0" height="19.9" fill="#CFE0EA" opacity="0.38" rx="1"/><rect x="1090.4" y="722.8" width="37.0" height="19.9" fill="#CFE0EA" opacity="0.38" rx="1"/><rect x="1178.4" y="722.8" width="37.0" height="19.9" fill="#CFE0EA" opacity="0.38" rx="1"/>
        <rect x="1260" y="208" width="400" height="546" fill="#0f131a"/>
        <rect x="1284.0" y="220.7" width="33.6" height="20.9" fill="#CFE0EA" opacity="0.14" rx="1"/><rect x="1364.0" y="220.7" width="33.6" height="20.9" fill="#CFE0EA" opacity="0.5" rx="1"/><rect x="1444.0" y="220.7" width="33.6" height="20.9" fill="#CFE0EA" opacity="0.5" rx="1"/><rect x="1524.0" y="220.7" width="33.6" height="20.9" fill="#CFE0EA" opacity="0.5" rx="1"/><rect x="1604.0" y="220.7" width="33.6" height="20.9" fill="#CFE0EA" opacity="0.5" rx="1"/><rect x="1284.0" y="266.2" width="33.6" height="20.9" fill="#CFE0EA" opacity="0.5" rx="1"/><rect x="1364.0" y="266.2" width="33.6" height="20.9" fill="#CFE0EA" opacity="0.14" rx="1"/><rect x="1444.0" y="266.2" width="33.6" height="20.9" fill="#CFE0EA" opacity="0.5" rx="1"/><rect x="1524.0" y="266.2" width="33.6" height="20.9" fill="#CFE0EA" opacity="0.5" rx="1"/><rect x="1604.0" y="266.2" width="33.6" height="20.9" fill="#CFE0EA" opacity="0.5" rx="1"/><rect x="1284.0" y="311.7" width="33.6" height="20.9" fill="#CFE0EA" opacity="0.5" rx="1"/><rect x="1364.0" y="311.7" width="33.6" height="20.9" fill="#CFE0EA" opacity="0.5" rx="1"/><rect x="1444.0" y="311.7" width="33.6" height="20.9" fill="#CFE0EA" opacity="0.14" rx="1"/><rect x="1524.0" y="311.7" width="33.6" height="20.9" fill="#CFE0EA" opacity="0.5" rx="1"/><rect x="1604.0" y="311.7" width="33.6" height="20.9" fill="#CFE0EA" opacity="0.5" rx="1"/><rect x="1284.0" y="357.2" width="33.6" height="20.9" fill="#CFE0EA" opacity="0.5" rx="1"/><rect x="1364.0" y="357.2" width="33.6" height="20.9" fill="#CFE0EA" opacity="0.5" rx="1"/><rect x="1444.0" y="357.2" width="33.6" height="20.9" fill="#CFE0EA" opacity="0.5" rx="1"/><rect x="1524.0" y="357.2" width="33.6" height="20.9" fill="#CFE0EA" opacity="0.14" rx="1"/><rect x="1604.0" y="357.2" width="33.6" height="20.9" fill="#CFE0EA" opacity="0.5" rx="1"/><rect x="1284.0" y="402.7" width="33.6" height="20.9" fill="#CFE0EA" opacity="0.5" rx="1"/><rect x="1364.0" y="402.7" width="33.6" height="20.9" fill="#CFE0EA" opacity="0.5" rx="1"/><rect x="1444.0" y="402.7" width="33.6" height="20.9" fill="#CFE0EA" opacity="0.5" rx="1"/><rect x="1524.0" y="402.7" width="33.6" height="20.9" fill="#CFE0EA" opacity="0.5" rx="1"/><rect x="1604.0" y="402.7" width="33.6" height="20.9" fill="#CFE0EA" opacity="0.14" rx="1"/><rect x="1284.0" y="448.2" width="33.6" height="20.9" fill="#CFE0EA" opacity="0.14" rx="1"/><rect x="1364.0" y="448.2" width="33.6" height="20.9" fill="#CFE0EA" opacity="0.5" rx="1"/><rect x="1444.0" y="448.2" width="33.6" height="20.9" fill="#CFE0EA" opacity="0.5" rx="1"/><rect x="1524.0" y="448.2" width="33.6" height="20.9" fill="#CFE0EA" opacity="0.5" rx="1"/><rect x="1604.0" y="448.2" width="33.6" height="20.9" fill="#CFE0EA" opacity="0.5" rx="1"/><rect x="1284.0" y="493.7" width="33.6" height="20.9" fill="#CFE0EA" opacity="0.5" rx="1"/><rect x="1364.0" y="493.7" width="33.6" height="20.9" fill="#CFE0EA" opacity="0.14" rx="1"/><rect x="1444.0" y="493.7" width="33.6" height="20.9" fill="#CFE0EA" opacity="0.5" rx="1"/><rect x="1524.0" y="493.7" width="33.6" height="20.9" fill="#CFE0EA" opacity="0.5" rx="1"/><rect x="1604.0" y="493.7" width="33.6" height="20.9" fill="#CFE0EA" opacity="0.5" rx="1"/><rect x="1284.0" y="539.2" width="33.6" height="20.9" fill="#CFE0EA" opacity="0.5" rx="1"/><rect x="1364.0" y="539.2" width="33.6" height="20.9" fill="#CFE0EA" opacity="0.5" rx="1"/><rect x="1444.0" y="539.2" width="33.6" height="20.9" fill="#CFE0EA" opacity="0.14" rx="1"/><rect x="1524.0" y="539.2" width="33.6" height="20.9" fill="#CFE0EA" opacity="0.5" rx="1"/><rect x="1604.0" y="539.2" width="33.6" height="20.9" fill="#CFE0EA" opacity="0.5" rx="1"/><rect x="1284.0" y="584.7" width="33.6" height="20.9" fill="#CFE0EA" opacity="0.5" rx="1"/><rect x="1364.0" y="584.7" width="33.6" height="20.9" fill="#CFE0EA" opacity="0.5" rx="1"/><rect x="1444.0" y="584.7" width="33.6" height="20.9" fill="#CFE0EA" opacity="0.5" rx="1"/><rect x="1524.0" y="584.7" width="33.6" height="20.9" fill="#CFE0EA" opacity="0.14" rx="1"/><rect x="1604.0" y="584.7" width="33.6" height="20.9" fill="#CFE0EA" opacity="0.5" rx="1"/><rect x="1284.0" y="630.2" width="33.6" height="20.9" fill="#CFE0EA" opacity="0.5" rx="1"/><rect x="1364.0" y="630.2" width="33.6" height="20.9" fill="#CFE0EA" opacity="0.5" rx="1"/><rect x="1444.0" y="630.2" width="33.6" height="20.9" fill="#CFE0EA" opacity="0.5" rx="1"/><rect x="1524.0" y="630.2" width="33.6" height="20.9" fill="#CFE0EA" opacity="0.5" rx="1"/><rect x="1604.0" y="630.2" width="33.6" height="20.9" fill="#CFE0EA" opacity="0.14" rx="1"/><rect x="1284.0" y="675.7" width="33.6" height="20.9" fill="#CFE0EA" opacity="0.14" rx="1"/><rect x="1364.0" y="675.7" width="33.6" height="20.9" fill="#CFE0EA" opacity="0.5" rx="1"/><rect x="1444.0" y="675.7" width="33.6" height="20.9" fill="#CFE0EA" opacity="0.5" rx="1"/><rect x="1524.0" y="675.7" width="33.6" height="20.9" fill="#CFE0EA" opacity="0.5" rx="1"/><rect x="1604.0" y="675.7" width="33.6" height="20.9" fill="#CFE0EA" opacity="0.5" rx="1"/><rect x="1284.0" y="721.2" width="33.6" height="20.9" fill="#CFE0EA" opacity="0.5" rx="1"/><rect x="1364.0" y="721.2" width="33.6" height="20.9" fill="#CFE0EA" opacity="0.14" rx="1"/><rect x="1444.0" y="721.2" width="33.6" height="20.9" fill="#CFE0EA" opacity="0.5" rx="1"/><rect x="1524.0" y="721.2" width="33.6" height="20.9" fill="#CFE0EA" opacity="0.5" rx="1"/><rect x="1604.0" y="721.2" width="33.6" height="20.9" fill="#CFE0EA" opacity="0.5" rx="1"/>
      </g>
    <rect width="2000" height="1300" fill="url(#gserrafachada-scrim)"/>
    <g filter="url(#gserrafachada-grao)" opacity="0.06"><rect width="2000" height="1300"/></g>
    <rect x="14" y="14" width="1972" height="1272" fill="none" stroke="#B8924A" stroke-width="1.5" opacity="0.35"/>
    
    </svg>